<?xml version="1.0" encoding="UTF-8"?>
<svg width="40px" height="40px" viewBox="0 0 40 40" version="1.1" xmlns="http://www.w3.org/2000/svg" xmlns:xlink="http://www.w3.org/1999/xlink">
    <!-- Generator: Sketch 52.6 (67491) - http://www.bohemiancoding.com/sketch -->
    <title>Fill 1</title>
    <desc>Created with Sketch.</desc>
    <g id="Page-1" stroke="none" stroke-width="1" fill="none" fill-rule="evenodd">
        <g id="Microklima" transform="translate(-38.000000, -3249.000000)" fill="#FFFFFF">
            <g id="Group-3" transform="translate(38.000000, 3249.000000)">
                <path d="M35.487808,25.2055364 C34.4376639,26.0292399 33.0842141,26.3418941 31.8554104,26.0448207 C31.0379392,25.8453868 30.4074372,25.5036485 29.8735361,24.9687086 C29.449739,24.5449116 29.1391623,24.0587915 28.8078112,23.5415098 C28.2385936,22.6513283 27.5343426,21.6551975 26.3824041,21.1015607 L26.3803267,21.1015607 C25.8578514,20.8512296 25.2938274,20.7265834 24.6716352,20.7265834 C24.5355631,20.7265834 24.3963749,20.7328157 24.2551092,20.7442416 C24.2966579,20.503259 24.318471,20.256044 24.318471,20.0036355 C24.318471,18.8496196 23.868706,17.764159 23.0522735,16.9466878 C23.0325378,16.9259134 23.0107248,16.9061778 22.9909891,16.8864421 C24.8689917,15.0375237 27.7150796,13.8429977 30.2391649,13.8429977 C32.1753356,13.8429977 33.9889377,14.5908749 35.3465424,15.9484796 C36.6729855,17.273884 37.4032044,19.0272404 37.4032044,20.886546 C37.4032044,22.7011867 36.722844,24.2353735 35.487808,25.2055364 M19.1124153,37.4032044 C17.5325249,37.4021657 16.1281778,36.8693033 15.1611312,35.9012179 C14.0735932,34.8136799 13.6113636,33.2628736 13.9551793,31.8554104 C14.372744,30.1384092 15.3844556,29.4933652 16.4595289,28.8078112 C17.3632138,28.2292451 18.2980602,27.6319821 18.8984393,26.3803267 C19.201745,25.7456698 19.3201589,25.0486899 19.2547197,24.2592641 C19.4957023,24.3028902 19.7449947,24.325742 19.9963645,24.325742 L19.9974032,24.325742 C21.2251681,24.325742 22.3355579,23.8094991 23.1229063,22.9826794 L23.1239451,22.9837181 C24.9385858,24.8388688 26.1570023,27.7545509 26.1559635,30.2381262 C26.1559635,34.1873328 22.9961827,37.4021657 19.1124153,37.4032044 M9.75979641,26.1559635 C7.82362565,26.1559635 6.01002363,25.4080864 4.65241892,24.049443 C3.32701446,22.7250773 2.59679555,20.9717209 2.59679555,19.1124153 C2.59679555,17.2967358 3.27611727,15.7635877 4.51219196,14.7934249 C5.30057909,14.1743489 6.26243216,13.8429977 7.2107819,13.8429977 C7.52655223,13.8429977 7.83920642,13.8793529 8.14458958,13.9531019 C8.96206082,14.1525358 9.59152406,14.4953128 10.1264639,15.0302527 C10.5461061,15.4488561 10.8535667,15.9308214 11.1890727,16.4543354 C11.7572516,17.3465943 12.4615025,18.3448025 13.6186346,18.8974006 C14.2543302,19.201745 14.9502714,19.3222364 15.7376198,19.2547197 C15.6950323,19.4988185 15.6732192,19.7481108 15.6732192,20.0036355 C15.6732192,21.2054325 16.1946558,22.3116674 17.0183593,23.1042094 L17.0100496,23.1114804 C15.1310083,24.9614376 12.2859591,26.1559635 9.75979641,26.1559635 M21.7216755,20.0025968 C21.7206367,20.9540627 20.9467917,21.7279078 19.9963645,21.7289465 C19.0926796,21.7289465 18.2700148,20.9062816 18.2700148,20.0046742 C18.2710535,19.0521696 19.0448986,18.2783245 19.9963645,18.2772858 C20.4565167,18.2772858 20.8896622,18.4569841 21.2168584,18.7821029 C21.5419772,19.1092991 21.7216755,19.5424446 21.7216755,20.0025968 M15.9152406,4.69189021 C17.2468774,3.3405178 19.0126983,2.59679555 20.886546,2.59679555 C22.4674751,2.59679555 23.8697447,3.129658 24.8388688,4.09774338 C25.9264068,5.18528136 26.3875977,6.73504895 26.0448207,8.14355086 C25.627256,9.85951336 24.6145057,10.5055961 23.5435872,11.1890727 C22.6388636,11.7676387 21.7029785,12.3649017 21.100522,13.6186346 C20.7961775,14.2553689 20.6788024,14.9533875 20.7452803,15.7448908 C20.5001428,15.7023034 20.2498117,15.6804903 19.9963645,15.6804903 C18.770677,15.681529 17.6634034,16.1936171 16.8760549,17.0152432 C15.0614142,15.1611312 13.8429977,12.2454491 13.8440365,9.75979641 C13.8440365,7.84751617 14.579449,6.04741749 15.9152406,4.69189021 M37.1829962,14.1120258 C34.6007427,11.5318497 30.8104599,10.6551715 27.0440676,11.7042769 C27.6808019,10.9958711 28.2510582,10.0579085 28.568906,8.75847205 C29.1246202,6.47536939 28.3985562,3.98556182 26.6753227,2.26128957 C25.2159236,0.802929185 23.1603002,0 20.886546,0 C18.3115635,0 15.8892726,1.01898258 14.0663222,2.86893973 C12.2475266,4.71370329 11.2462022,7.16092342 11.2472409,9.75979641 C11.2472409,10.7985146 11.4051261,11.8787816 11.7011608,12.9455452 C10.8816121,12.209094 9.91560414,11.7125867 8.75951076,11.431094 C6.76413306,10.9439352 4.57866992,11.4383651 2.90841102,12.7513049 C1.03248591,14.2231686 0,16.4823807 0,19.1124153 C0,21.6655847 1.00028565,24.0712561 2.81700382,25.8858968 C5.39510244,28.4671116 9.18850139,29.342751 12.9548937,28.2946844 C12.3171207,29.0030902 11.7489418,29.9410527 11.431094,31.2404892 C10.8753798,33.5235919 11.6014438,36.0133995 13.3246773,37.7376717 C14.781999,39.1960321 16.8386611,39.9989613 19.1124153,40 C24.4285751,39.9989613 28.7527591,35.6197253 28.7527591,30.2391649 C28.7527591,29.2004466 28.5938352,28.1201797 28.2988392,27.0544548 C29.1183879,27.7898673 30.0843959,28.2863746 31.2404892,28.5678673 C33.2296346,29.0539874 35.4202914,28.5605962 37.0926277,27.2476564 C38.9675141,25.7737152 40,23.5155418 40,20.886546 C40,18.3333766 38.9997144,15.9277052 37.1829962,14.1120258" id="Fill-1"></path>
            </g>
        </g>
    </g>
</svg>